<svg xmlns="http://www.w3.org/2000/svg" viewBox="0 0 391.34 504.61"><defs><style>.cls-1{fill:#fc4603;}</style></defs><g id="Layer_2" data-name="Layer 2"><g id="image"><rect class="cls-1" y="265.77" width="391.34" height="73.38"/><path class="cls-1" d="M391.34,216.85c-130.45-36.69-260.89,36.69-391.34,0V143.47c130.45,36.69,260.89-36.68,391.34,0Z"/><path class="cls-1" d="M391.34,94.56C260.89,21.18,130.45,167.93,0,94.56V21.18c130.45,73.38,260.89-73.37,391.34,0Z"/><path d="M58.9,475.59q0-6.13-4.33-9.42T39,459.24a111.21,111.21,0,0,1-17.83-7.18Q3.26,442.39,3.25,426a25.39,25.39,0,0,1,4.8-15.2,31.32,31.32,0,0,1,13.79-10.43A51.9,51.9,0,0,1,42,396.62a47.22,47.22,0,0,1,20.07,4.08,31.88,31.88,0,0,1,13.68,11.51,30.13,30.13,0,0,1,4.87,16.89H59q0-7.22-4.55-11.22t-12.78-4q-7.93,0-12.34,3.36a10.56,10.56,0,0,0-4.41,8.84q0,5.13,5.17,8.59t15.19,6.5q18.48,5.55,26.93,13.78a27.47,27.47,0,0,1,8.44,20.51q0,13.64-10.32,21.4t-27.79,7.76a53.64,53.64,0,0,1-22.09-4.44q-10-4.44-15.2-12.16A31.16,31.16,0,0,1,0,470.1H21.73q0,17.4,20.79,17.4,7.73,0,12-3.14A10.21,10.21,0,0,0,58.9,475.59Z"/><path d="M120.91,471.84l-7.51,7.5v23.83H92.54V392.29H113.4v61.43l4-5.2,20-23.46h25.05l-28.23,32.56,30.68,45.55H141Z"/><path d="M170,404.85a10.29,10.29,0,0,1,3.14-7.73q3.13-3,8.55-3a11.84,11.84,0,0,1,8.52,3,11,11,0,0,1,0,15.52,13.4,13.4,0,0,1-17,0A10.24,10.24,0,0,1,170,404.85Zm22.16,98.32H171.21V425.06h20.93Z"/><path d="M226.36,425.06l.65,8.73q8.3-10.17,22.45-10.17,15.07,0,20.71,11.91,8.24-11.91,23.47-11.91,12.71,0,18.91,7.39t6.21,22.27v49.89H297.82V453.36q0-6.64-2.6-9.71t-9.16-3.07q-9.39,0-13,8.95l.07,53.64H252.27V453.43q0-6.78-2.67-9.82t-9.09-3q-8.88,0-12.85,7.36v55.23H206.79V425.06Z"/><path d="M354.09,503.17H333.16V392.29h20.93Z"/><path d="M368,404.85a10.29,10.29,0,0,1,3.14-7.73q3.14-3,8.55-3a11.82,11.82,0,0,1,8.52,3,11,11,0,0,1,0,15.52,13.4,13.4,0,0,1-17,0A10.24,10.24,0,0,1,368,404.85Zm22.16,98.32H369.18V425.06h20.93Z"/></g></g></svg>