<svg width="75" height="75" viewBox="0 0 75 75" fill="none" xmlns="http://www.w3.org/2000/svg">
<path d="M9.375 53.125V21.875C9.375 20.2174 10.0335 18.6277 11.2056 17.4556C12.3777 16.2835 13.9674 15.625 15.625 15.625H34.375L40.625 21.875H59.375C61.0326 21.875 62.6223 22.5335 63.7944 23.7056C64.9665 24.8777 65.625 26.4674 65.625 28.125V53.125C65.625 54.7826 64.9665 56.3723 63.7944 57.5444C62.6223 58.7165 61.0326 59.375 59.375 59.375H15.625C13.9674 59.375 12.3777 58.7165 11.2056 57.5444C10.0335 56.3723 9.375 54.7826 9.375 53.125Z" stroke="black" stroke-width="2" stroke-linecap="round" stroke-linejoin="round"/>
<path d="M34.7872 30.1759L44.6293 36.6414C45.051 36.9183 45.3967 37.2966 45.6358 37.7367C45.8749 38.1769 46 38.6683 46 39.1675C46 39.6667 45.8749 40.1582 45.6358 40.5984C45.3967 41.0385 45.051 41.4137 44.6293 41.6906L34.7872 48.1561C34.3235 48.4608 33.7846 48.6358 33.2279 48.6624C32.6712 48.6891 32.1176 48.5663 31.6262 48.3073C31.1348 48.0483 30.7239 47.6628 30.4375 47.1918C30.1511 46.7208 29.9999 46.182 30 45.633V32.7051C29.9988 32.1556 30.1492 31.616 30.4352 31.1442C30.7211 30.6723 31.1319 30.2859 31.6235 30.0261C32.1151 29.7664 32.6692 29.6431 33.2264 29.6695C33.7836 29.6959 34.3231 29.871 34.7872 30.1759Z" fill="black"/>
</svg>
