<svg width="75" height="75" viewBox="0 0 75 75" fill="none" xmlns="http://www.w3.org/2000/svg">
<path d="M9.375 53.125V21.875C9.375 20.2174 10.0335 18.6277 11.2056 17.4556C12.3777 16.2835 13.9674 15.625 15.625 15.625H34.375L40.625 21.875H59.375C61.0326 21.875 62.6223 22.5335 63.7944 23.7056C64.9665 24.8777 65.625 26.4674 65.625 28.125V53.125C65.625 54.7826 64.9665 56.3723 63.7944 57.5444C62.6223 58.7165 61.0326 59.375 59.375 59.375H15.625C13.9674 59.375 12.3777 58.7165 11.2056 57.5444C10.0335 56.3723 9.375 54.7826 9.375 53.125Z" stroke="black" stroke-width="2" stroke-linecap="round" stroke-linejoin="round"/>
<line x1="38" y1="34" x2="38" y2="50" stroke="black" stroke-width="2" stroke-linecap="round"/>
<line x1="35" y1="39" x2="35" y2="47" stroke="black" stroke-width="2" stroke-linecap="round"/>
<line x1="41" y1="38" x2="41" y2="48" stroke="black" stroke-width="2" stroke-linecap="round"/>
<line x1="44" y1="40" x2="44" y2="46" stroke="black" stroke-width="2" stroke-linecap="round"/>
<line x1="32" y1="37" x2="32" y2="48" stroke="black" stroke-width="2" stroke-linecap="round"/>
<line x1="29" y1="43" x2="29" y2="45" stroke="black" stroke-width="2" stroke-linecap="round"/>
<line x1="47" y1="42" x2="47" y2="45" stroke="black" stroke-width="2" stroke-linecap="round"/>
</svg>
