<svg width="484" height="260" viewBox="0 0 484 260" fill="none" xmlns="http://www.w3.org/2000/svg">
<g clip-path="url(#clip0_112_37609)">
<path d="M194.531 133.473L201.963 122.771C201.963 122.771 220.988 133.77 228.123 101.665C228.123 101.665 232.582 100.178 232.285 98.9891C231.69 97.2055 228.123 98.6918 225.745 94.53C223.366 90.3682 229.312 68.6673 208.503 58.8573C187.694 49.0473 185.018 74.91 171.046 124.257L194.531 133.473Z" fill="white" stroke="black" stroke-width="0.7" stroke-miterlimit="10" stroke-linecap="round" stroke-linejoin="round"/>
<path d="M196.315 146.255C196.315 146.255 204.638 138.526 194.234 128.122C183.829 118.015 177.289 111.772 171.046 112.366C166.29 112.961 165.695 135.554 165.695 135.554L196.315 146.255Z" fill="black"/>
<path d="M219.799 67.7755L218.907 66.5864C218.907 66.5864 215.043 87.99 198.693 90.0709C182.343 92.1518 198.098 90.9627 198.098 90.9627L197.801 100.773C195.423 102.259 193.936 105.529 196.017 109.988C197.504 113.258 199.585 116.231 198.693 119.798C197.504 125.446 191.261 128.716 185.315 128.716C179.37 129.014 173.722 128.716 168.074 128.419C158.858 128.122 148.156 131.689 143.995 139.715C139.238 148.634 132.401 152.201 130.32 161.119C129.428 165.578 128.536 170.632 124.672 173.01C121.996 174.794 118.132 174.794 114.862 173.902C108.025 171.821 102.376 166.47 100.295 159.93C97.62 152.201 99.4036 143.58 103.565 136.743C107.727 129.608 113.97 124.257 120.51 119.501C127.05 114.745 133.887 110.583 140.13 105.232C144.292 101.962 147.859 98.0973 151.129 94.2327C151.724 93.6382 152.318 92.7464 152.913 92.1518C154.696 89.7736 155.885 87.0982 156.777 84.1255C160.345 69.2618 168.371 49.6418 184.424 45.7773C217.421 37.4536 219.799 67.7755 219.799 67.7755Z" fill="black"/>
<path d="M219.502 103.745C219.502 103.745 220.988 110.285 226.339 107.907" stroke="black" stroke-width="0.7" stroke-miterlimit="10" stroke-linecap="round" stroke-linejoin="round"/>
<path d="M198.99 100.178C197.206 101.367 194.828 101.367 192.747 100.178C190.072 98.3945 189.18 94.8273 190.666 92.1518C192.45 89.4764 196.017 88.5846 198.693 90.0709C199.585 90.6655 200.476 91.5573 201.071 92.4491" fill="white"/>
<path d="M198.99 100.178C197.206 101.367 194.828 101.367 192.747 100.178C190.072 98.3945 189.18 94.8273 190.666 92.1518C192.45 89.4764 196.017 88.5846 198.693 90.0709C199.585 90.6655 200.476 91.5573 201.071 92.4491" stroke="black" stroke-width="0.7" stroke-miterlimit="10" stroke-linecap="round" stroke-linejoin="round"/>
<path d="M196.315 93.6382C196.909 94.53 196.612 95.7191 195.423 96.3136C195.125 96.6109 194.828 96.6109 194.234 96.6109" stroke="black" stroke-width="0.7" stroke-miterlimit="10" stroke-linecap="round" stroke-linejoin="round"/>
<path d="M219.502 90.0709C218.907 90.9627 217.718 91.26 216.826 90.6654C215.935 90.0709 215.637 88.8818 216.232 87.99C216.826 87.0982 218.015 86.8009 218.907 87.3954C219.799 87.6927 220.096 88.8818 219.502 90.0709Z" fill="black"/>
<path d="M221.583 83.5309C221.583 83.5309 217.421 79.3691 213.556 84.1255" stroke="black" stroke-width="0.7" stroke-miterlimit="10" stroke-linecap="round" stroke-linejoin="round"/>
<path d="M341.384 196.197C341.384 197.684 326.817 198.873 308.684 198.873C290.55 198.873 275.984 197.684 275.984 196.197C275.984 194.711 290.55 193.522 308.684 193.522C326.52 193.225 341.384 194.414 341.384 196.197ZM350.302 215.817L329.493 228.897C329.195 229.195 328.601 229.195 328.304 229.195L237.933 220.276C235.852 219.979 235.257 217.601 237.041 216.412L256.661 204.818C256.958 204.521 257.553 204.521 257.85 204.521L349.41 211.953C351.491 212.25 352.085 214.925 350.302 215.817Z" fill="white" stroke="black" stroke-width="0.5" stroke-miterlimit="10" stroke-linecap="round" stroke-linejoin="round"/>
<path d="M262.012 208.385H264.39M269.146 209.277H271.525M276.281 209.872L278.659 210.169M283.118 210.764L285.794 211.061M290.253 211.655L292.631 211.953M297.387 212.547H299.765M304.522 213.142L306.9 213.439M311.656 214.034L314.035 214.331M318.494 214.925L320.872 215.223M325.628 215.817H328.006M332.763 216.412L335.141 216.709M257.553 211.655L259.931 211.953M292.928 215.817L295.306 216.115M300.063 216.709L302.441 217.006M306.9 217.601H309.575M314.035 218.195L316.413 218.493M321.169 219.087L323.547 219.385M328.304 219.979L330.682 220.276M253.094 215.223L255.472 215.52M288.469 219.385H290.847M295.604 220.276H297.982M302.441 220.871L305.116 221.168M309.575 221.763L311.954 222.06M316.71 222.655L319.088 222.952M323.845 223.546H326.223" stroke="#14B8A6" stroke-width="0.5" stroke-miterlimit="10" stroke-linecap="round" stroke-linejoin="round"/>
<path d="M355.653 168.848C354.464 171.821 351.491 173.605 348.518 173.902H337.519C340.492 173.605 343.167 171.524 344.356 168.848C352.383 151.606 375.57 96.9082 372.895 94.2327C370.516 91.5573 363.976 90.0709 355.058 88.8818C369.327 89.7736 380.624 91.5573 383.894 95.1245C386.569 97.8 363.679 151.606 355.653 168.848Z" fill="#333333" stroke="black" stroke-width="0.5" stroke-miterlimit="10" stroke-linecap="round" stroke-linejoin="round"/>
<path d="M373.192 93.9355C375.57 96.6109 352.68 151.309 344.356 168.551C342.87 171.524 339.897 173.605 336.925 173.605C336.925 173.605 249.526 173.605 234.365 170.929C224.555 169.145 255.472 81.1527 262.309 82.3418C294.117 88.2873 363.976 83.8282 373.192 93.9355Z" fill="white" stroke="black" stroke-width="0.5" stroke-miterlimit="10" stroke-linecap="round" stroke-linejoin="round"/>
<path d="M234.068 156.363C232.285 164.984 232.285 170.632 234.663 171.226C249.824 173.902 337.222 173.902 337.222 173.902C340.195 173.902 343.167 171.821 344.654 168.848C346.14 165.578 346.437 165.281 348.518 160.227L234.068 156.363Z" fill="#FFB020" stroke="black" stroke-width="0.5" stroke-miterlimit="10" stroke-linecap="round" stroke-linejoin="round"/>
<path d="M180.559 229.195H108.916C108.916 229.195 108.619 224.141 112.186 218.79C113.375 216.709 115.456 214.628 117.835 212.547L119.618 213.439C134.185 217.898 151.426 219.385 171.344 217.601C172.83 217.601 174.316 216.709 175.505 215.52C177.289 217.304 179.37 220.574 180.262 224.438C180.559 225.925 180.856 227.708 180.559 229.195Z" fill="#FC4603"/>
<path d="M180.262 224.438C179.667 224.438 179.073 224.735 178.478 224.735C172.83 225.627 167.182 225.925 161.534 225.925C151.426 226.222 141.319 225.33 131.509 223.249C126.455 222.357 121.699 221.168 116.645 219.682C115.159 219.385 113.375 219.087 111.592 218.493C112.781 216.412 114.862 214.331 117.24 212.25L119.024 213.142C133.59 217.601 150.832 219.087 170.749 217.304C172.235 217.304 173.722 216.412 174.911 215.223C177.586 217.304 179.667 220.574 180.262 224.438Z" fill="#FC4603"/>
<path d="M180.559 229.195H108.916C108.916 229.195 108.619 219.682 117.835 212.25L119.618 213.142C134.185 217.601 151.426 219.087 171.344 217.304C172.83 217.006 174.316 216.412 175.505 215.223C178.478 217.898 181.451 223.249 180.559 229.195Z" stroke="black" stroke-width="0.5" stroke-miterlimit="10" stroke-linecap="round" stroke-linejoin="round"/>
<path d="M296.198 214.331C294.712 213.142 292.631 211.061 291.442 209.575C292.334 211.061 292.631 212.547 292.036 213.142C291.442 213.736 290.253 213.439 289.064 212.845C289.658 214.034 289.658 214.925 289.064 215.52C288.469 216.115 287.875 215.817 286.685 215.52C286.685 216.115 286.685 216.709 286.388 217.006C285.496 217.601 284.01 217.006 282.226 216.115C281.335 217.898 280.443 218.79 271.227 216.115C271.227 216.115 222.475 226.519 216.826 224.735C212.07 223.249 202.557 211.061 194.531 198.873C192.747 200.656 190.964 201.548 189.18 202.44C185.018 204.224 181.154 203.332 181.154 203.332L177.586 212.845C176.695 215.52 174.316 217.304 171.344 217.601C151.129 219.385 133.887 217.898 119.618 213.439C115.754 212.25 113.673 208.385 114.862 204.521C119.915 187.576 133.887 142.391 148.751 132.284C152.913 129.311 159.453 128.122 163.317 127.825C174.911 127.527 196.315 131.392 204.341 148.039C215.637 171.821 231.393 200.359 231.393 200.359L269.444 197.684C269.444 197.684 277.47 196.197 283.118 196.495C288.469 196.792 298.874 208.98 300.36 211.655C303.927 217.006 299.171 216.412 296.198 214.331Z" fill="white" stroke="black" stroke-width="0.5" stroke-miterlimit="10" stroke-linecap="round" stroke-linejoin="round"/>
<path d="M194.531 198.873C186.505 186.982 179.667 175.388 179.667 175.388C179.667 175.388 176.397 167.659 170.452 172.713" stroke="black" stroke-width="0.56" stroke-miterlimit="10" stroke-linecap="round" stroke-linejoin="round"/>
<path d="M287.28 210.466C287.875 211.061 288.469 211.655 289.064 212.547L287.28 210.466ZM285.199 213.439C285.794 214.034 286.388 214.628 286.685 215.223L285.199 213.439ZM278.659 214.628C279.848 214.925 281.037 215.223 282.226 216.115L278.659 214.628Z" fill="white"/>
<path d="M287.28 210.466C287.875 211.061 288.469 211.655 289.064 212.547M285.199 213.439C285.794 214.034 286.388 214.628 286.685 215.223M278.659 214.628C279.848 214.925 281.037 215.223 282.226 216.115" stroke="black" stroke-width="0.56" stroke-miterlimit="10" stroke-linecap="round" stroke-linejoin="round"/>
<path d="M322.655 195.603H298.874L286.983 173.307L311.359 173.902L322.655 195.603Z" fill="white" stroke="black" stroke-width="0.5" stroke-miterlimit="10" stroke-linecap="round" stroke-linejoin="round"/>
<path d="M317.602 195.603H293.82L281.929 173.307L306.305 173.902L317.602 195.603Z" fill="white" stroke="black" stroke-width="0.5" stroke-miterlimit="10" stroke-linecap="round" stroke-linejoin="round"/>
<path d="M333.948 167.987C335.083 166.801 335.235 165.104 334.287 164.195C333.338 163.287 331.648 163.511 330.513 164.697C329.377 165.883 329.225 167.58 330.174 168.489C331.123 169.397 332.812 169.173 333.948 167.987Z" fill="white"/>
<path d="M329.499 132.464C327.744 137.615 325.989 141.621 325.403 142.193C322.478 143.91 273.912 142.766 269.231 139.904C268.061 139.332 271.572 125.025 274.497 114.151C276.253 108.429 278.008 103.85 278.593 102.706C282.689 98.6997 334.765 102.706 335.936 104.995C336.521 105.567 333.01 121.591 329.499 132.464Z" fill="#FEB59A"/>
<path d="M194.531 197.981V198.873C192.747 200.656 190.964 201.548 189.18 202.44L179.667 175.091L194.531 197.981Z" fill="black"/>
<path d="M231.69 200.656L234.365 205.115L231.69 200.656Z" fill="white"/>
<path d="M231.69 200.656L234.365 205.115" stroke="black" stroke-width="0.5" stroke-miterlimit="10" stroke-linecap="round" stroke-linejoin="round"/>
<path d="M298.942 118.172L302.889 121.921C303.058 122.082 303.184 122.283 303.258 122.504C303.331 122.726 303.348 122.962 303.308 123.192C303.269 123.421 303.173 123.638 303.029 123.822C302.886 124.005 302.699 124.151 302.486 124.245L297.507 126.447C297.273 126.551 297.014 126.589 296.76 126.558C296.505 126.526 296.264 126.426 296.062 126.269C295.86 126.111 295.704 125.901 295.612 125.662C295.52 125.422 295.494 125.162 295.538 124.91L296.57 118.959C296.613 118.706 296.724 118.47 296.892 118.275C297.059 118.08 297.276 117.935 297.52 117.854C297.763 117.773 298.024 117.76 298.275 117.816C298.525 117.872 298.756 117.995 298.942 118.172Z" stroke="black" stroke-width="2" stroke-linecap="round" stroke-linejoin="round"/>
<path d="M290.184 111.938C290.27 111.435 290.722 111.077 291.231 111.108L311.723 112.362C312.316 112.399 312.746 112.94 312.649 113.525L309.316 133.521C309.231 134.034 308.766 134.396 308.248 134.354L287.756 132.681C287.172 132.633 286.754 132.095 286.852 131.516L290.184 111.938Z" stroke="black" stroke-width="2"/>
<g clip-path="url(#clip1_112_37609)">
<path d="M328.913 144.013L326.628 147.067L325.908 138.808L332.701 143.561L328.913 144.013ZM328.913 144.013L331.417 148.351M325.907 133.85L325.908 135.974M323.454 137.391L321.613 136.328M330.202 136.329L328.361 137.391M323.454 140.224L321.614 141.287" stroke="black" stroke-width="2" stroke-linecap="round" stroke-linejoin="round"/>
</g>
<path d="M399 94.675L414.372 82.65" stroke="black" stroke-width="3" stroke-miterlimit="10" stroke-linecap="round"/>
<path d="M380 75.1L387.3 57" stroke="black" stroke-width="3" stroke-miterlimit="10" stroke-linecap="round"/>
<path d="M390.677 83.103C392.275 81.5053 415.588 50.838 415.588 50.838" stroke="black" stroke-width="3" stroke-miterlimit="10" stroke-linecap="round"/>
</g>
<defs>
<clipPath id="clip0_112_37609">
<rect width="484" height="260" fill="white"/>
</clipPath>
<clipPath id="clip1_112_37609">
<rect width="17" height="17" fill="white" transform="translate(321.4 131) rotate(15)"/>
</clipPath>
</defs>
</svg>
