<svg width="70" height="71" viewBox="0 0 70 71" fill="none" xmlns="http://www.w3.org/2000/svg">
<path d="M20.4163 47.1542C17.5434 47.1574 14.7703 46.1005 12.6284 44.186C10.4864 42.2715 9.12619 39.6339 8.80826 36.7787C8.49033 33.9235 9.23707 31.0513 10.9054 28.7125C12.5738 26.3737 15.0464 24.7327 17.8496 24.1038C17.0385 20.3212 17.7633 16.3713 19.8646 13.123C21.9658 9.87476 25.2713 7.59426 29.054 6.7832C32.8366 5.97213 36.7865 6.69694 40.0348 8.79817C43.283 10.8994 45.5635 14.2049 46.3746 17.9876H46.6663C50.2828 17.9839 53.7717 19.3242 56.4556 21.7482C59.1395 24.1723 60.827 27.5071 61.1904 31.1053C61.5539 34.7035 60.5674 38.3084 58.4224 41.2202C56.2775 44.132 53.1271 46.1429 49.5829 46.8626M43.7496 38.4042L34.9996 29.6542M34.9996 29.6542L26.2496 38.4042M34.9996 29.6542V64.6542" stroke="black" stroke-width="3" stroke-linecap="round" stroke-linejoin="round"/>
</svg>
