<svg width="105" height="91" viewBox="0 0 105 91" fill="none" xmlns="http://www.w3.org/2000/svg">
<g clip-path="url(#clip0_100_4024)">
<path d="M89.4444 0H15.5556C6.96446 0 0 6.96446 0 15.5556V75.8333C0 84.4244 6.96446 91.3889 15.5556 91.3889H89.4444C98.0355 91.3889 105 84.4244 105 75.8333V15.5556C105 6.96446 98.0355 0 89.4444 0Z" fill="url(#paint0_linear_100_4024)"/>
<mask id="mask0_100_4024" style="mask-type:luminance" maskUnits="userSpaceOnUse" x="9" y="34" width="22" height="5">
<path d="M9.72223 36.3611C9.72223 35.3947 10.5057 34.6111 11.4722 34.6111H30.3333V38.1111H11.4722C10.5057 38.1111 9.72223 37.3275 9.72223 36.3611Z" fill="white"/>
</mask>
<g mask="url(#mask0_100_4024)">
<path d="M30.3333 34.6111H38.1111V26.8333H30.3333V34.6111ZM30.3333 38.1111V45.8889H38.1111V38.1111H30.3333ZM11.4722 42.3889H30.3333V26.8333H11.4722V42.3889ZM22.5556 34.6111V38.1111H38.1111V34.6111H22.5556ZM30.3333 30.3333H11.4722V45.8889H30.3333V30.3333ZM11.4722 30.3333C14.8013 30.3333 17.5 33.0321 17.5 36.3611H1.94446C1.94446 41.6232 6.21018 45.8889 11.4722 45.8889V30.3333ZM11.4722 26.8333C6.21018 26.8333 1.94446 31.0991 1.94446 36.3611H17.5C17.5 39.69 14.8013 42.3889 11.4722 42.3889V26.8333Z" fill="white"/>
</g>
<mask id="mask1_100_4024" style="mask-type:luminance" maskUnits="userSpaceOnUse" x="10" y="53" width="22" height="4">
<path d="M10.5 55.0278C10.5 54.0614 11.2835 53.2778 12.25 53.2778H31.1111V56.7778H12.25C11.2835 56.7778 10.5 55.9942 10.5 55.0278Z" fill="white"/>
</mask>
<g mask="url(#mask1_100_4024)">
<path d="M31.1111 53.2777H38.8889V45.5H31.1111V53.2777ZM31.1111 56.7777V64.5555H38.8889V56.7777H31.1111ZM12.25 61.0555H31.1111V45.5H12.25V61.0555ZM23.3334 53.2777V56.7777H38.8889V53.2777H23.3334ZM31.1111 49H12.25V64.5555H31.1111V49ZM12.25 49C15.5791 49 18.2778 51.6989 18.2778 55.0277H2.72226C2.72226 60.2898 6.98798 64.5555 12.25 64.5555V49ZM12.25 45.5C6.98798 45.5 2.72226 49.7657 2.72226 55.0277H18.2778C18.2778 58.3566 15.5791 61.0555 12.25 61.0555V45.5Z" fill="white"/>
</g>
<path d="M80.7302 52.6979L43.3284 73.3456C38.1445 76.2075 31.7916 72.4578 31.7916 66.5366V25.2413C31.7916 19.3201 38.1445 15.5705 43.3284 18.4322L80.7302 39.0798C86.0887 42.0377 86.0887 49.7401 80.7302 52.6979Z" fill="black"/>
<path fill-rule="evenodd" clip-rule="evenodd" d="M41.449 21.8367C38.8569 20.4059 35.6805 22.2807 35.6805 25.2413V66.5365C35.6805 69.4972 38.857 71.372 41.4489 69.9411L43.3284 73.3456L41.449 69.941L78.8507 49.2934L78.8509 49.2933C81.53 47.8144 81.53 43.9633 78.8509 42.4844L78.8507 42.4844L41.449 21.8367C41.449 21.8367 41.449 21.8367 41.449 21.8367ZM27.9028 25.2413C27.9028 16.3594 37.4321 10.7351 45.2079 15.0276L45.2079 15.0276L82.6096 35.6752C82.6096 35.6752 82.6097 35.6752 82.6097 35.6753C90.6475 40.1122 90.6474 51.6657 82.6096 56.1026L45.2079 76.7501C37.4321 81.0429 27.9028 75.4183 27.9028 66.5365V25.2413Z" fill="white"/>
<path d="M65.8195 48.0779L47.7361 58.5184C46.0511 59.4914 43.9445 58.275 43.9445 56.3294V35.4484C43.9445 33.5024 46.0511 32.2864 47.7361 33.2593L65.8195 43.6998C67.5045 44.6728 67.5045 47.1049 65.8195 48.0779Z" fill="white"/>
<path fill-rule="evenodd" clip-rule="evenodd" d="M47.6389 33.4277C46.0834 32.5297 44.1389 33.6521 44.1389 35.4484V56.3294C44.1389 58.1253 46.0835 59.2482 47.6389 58.3501L47.7361 58.5185L47.6389 58.3501L65.7222 47.9096C67.2777 47.0114 67.2777 44.7664 65.7222 43.8682L47.6389 33.4277L47.6389 33.4277ZM43.75 35.4484C43.75 33.3527 46.0187 32.0432 47.8333 33.091C47.8333 33.091 47.8333 33.091 47.8333 33.091L65.9167 43.5315L65.9167 43.5315C67.7314 44.5793 67.7314 47.1985 65.9167 48.2463L65.9167 48.2463L47.8333 58.6869C46.0186 59.7347 43.75 58.4247 43.75 56.3294V35.4484Z" fill="white"/>
<path fill-rule="evenodd" clip-rule="evenodd" d="M57.5556 49.7778H0V42H57.5556V49.7778Z" fill="white"/>
</g>
<defs>
<linearGradient id="paint0_linear_100_4024" x1="72.3263" y1="45.6944" x2="17.0698" y2="41.2961" gradientUnits="userSpaceOnUse">
<stop stop-color="#FC4603"/>
<stop offset="1" stop-color="#FD6B35"/>
</linearGradient>
<clipPath id="clip0_100_4024">
<rect width="105" height="91" fill="white"/>
</clipPath>
</defs>
</svg>
